PathFileType	4	(X/Y/Z)	D:\Research_projects\MuscleProsody\BulkSports2Dtrack\RetrackedSports2D\p1_sample60_cam3\p1_sample60_cam3_Sports2D\p1_sample60_cam3_Sports2D_px_person00.trc
DataRate	CameraRate	NumFrames	NumMarkers	Units	OrigDataRate	OrigDataStartFrame	OrigNumFrames
60	60	8	22	m	60	487	780
Frame#	Time	Hip			RHip			RKnee			RAnkle			RBigToe			RSmallToe			RHeel			LHip			LKnee			LAnkle			LBigToe			LSmallToe			LHeel			Neck			Head			Nose			RShoulder			RElbow			RWrist			LShoulder			LElbow			LWrist		
		X1	Y1	Z1	X2	Y2	Z2	X3	Y3	Z3	X4	Y4	Z4	X5	Y5	Z5	X6	Y6	Z6	X7	Y7	Z7	X8	Y8	Z8	X9	Y9	Z9	X10	Y10	Z10	X11	Y11	Z11	X12	Y12	Z12	X13	Y13	Z13	X14	Y14	Z14	X15	Y15	Z15	X16	Y16	Z16	X17	Y17	Z17	X18	Y18	Z18	X19	Y19	Z19	X20	Y20	Z20	X21	Y21	Z21	X22	Y22	Z22
487	8.116666666666667	226.34533264448078	554.2105760411224	0.0	203.82747348254992	559.380114248372	0.0	206.00509654704612	676.1165148960714	0.0	218.86906512051922	772.8914030358511	0.0	184.11389662797413	807.9480110184601	0.0	181.20614413253895	799.246792067878	0.0	230.4961110065175	789.7180312926391	0.0	249.766888139848	563.5259373025785	0.0	247.7792764289163	682.7390537436302	0.0	254.28118318572874	793.0195954322145	0.0	218.8310512840391	829.6202823802794	0.0	238.97026599282447	833.1827298176265	0.0	265.6285070470145	808.0073614163252	0.0	227.92281298895463	359.11685282481363	0.0	202.9412635105837	272.78161225664206	0.0	175.71246463987376	322.3521819556813	0.0	196.40570805428683	391.29274355647516	0.0	161.13949287257546	457.5774283808376	0.0	141.4547518332717	425.237807185435	0.0	276.09800595421495	384.2258339553087	0.0	294.2854272598824	468.34854204587674	0.0	214.1744823697733	443.00314476905464	0.0
488	8.133333333333333	226.3768908783806	554.0647700418461	0.0	203.84173404823093	558.8476878747998	0.0	205.87088053798954	675.6076204450525	0.0	218.8451452062151	773.0164170738587	0.0	183.8731421163693	807.9804559124233	0.0	180.87887761331567	799.3568726253944	0.0	230.50598951363122	789.6911967396647	0.0	249.83726665132164	563.0544435127566	0.0	247.67620546319498	682.4861494114765	0.0	254.41303703608557	792.9762996287759	0.0	218.99624398095364	829.536543484124	0.0	239.06985104409713	833.1575543499134	0.0	265.71686718069395	807.9066013790718	0.0	227.79306672098303	358.9938115051101	0.0	202.04419837980458	272.6273681923632	0.0	175.72371079238022	322.51646805647994	0.0	196.75848428390654	391.47508072534447	0.0	164.07379682302002	460.1374478066067	0.0	137.70147055398184	424.88524761674114	0.0	276.4204499720059	384.7639504202963	0.0	293.06265429388804	470.3430888771841	0.0	216.84077422326388	442.76881177719736	0.0
489	8.15	226.38524065960027	553.9275234245491	0.0	203.8408752676472	558.3410434324231	0.0	205.70460642079263	675.0510943501803	0.0	218.8530491463826	773.0789130345919	0.0	183.61883422467793	808.0165252469252	0.0	180.54063582929686	799.4769476439959	0.0	230.52876312677768	789.5664376977677	0.0	249.87300949285975	562.5665773843587	0.0	247.54536010636542	682.2295071467066	0.0	254.58905809297968	792.9103510699271	0.0	219.18111961693256	829.49414686138	0.0	239.18974454046577	833.1577884450337	0.0	265.8557953498393	807.7937318830463	0.0	227.71279301509415	358.86767627529474	0.0	201.2748416376392	272.4785260445906	0.0	175.86304783348712	322.6595517321498	0.0	197.18001166820463	391.65513654691557	0.0	166.95289718551555	462.46729126785766	0.0	133.4154099984999	426.1551038516781	0.0	276.713971417837	385.3002799422228	0.0	291.8062735585262	472.26626557389187	0.0	219.9963104832049	444.3129194082529	0.0
490	8.166666666666666	226.37256185293273	553.8283751702185	0.0	203.83979530605683	557.9399615890396	0.0	205.53903885697528	674.4989613182383	0.0	218.9027800529467	773.0849621234712	0.0	183.38778141824366	808.0458908989184	0.0	180.21988934175465	799.5902269144533	0.0	230.557427480216	789.3553312001367	0.0	249.86894135250856	562.1383313250838	0.0	247.40435195775822	682.0202563040671	0.0	254.8055785439056	792.8198370817505	0.0	219.38716523274573	829.4968503960556	0.0	239.33901798526395	833.1850472313445	0.0	266.016329660319	807.6714785463905	0.0	227.69973419285316	358.7512083822765	0.0	200.68251752814172	272.3664704136989	0.0	176.11033325869593	322.79332646557185	0.0	197.66268947065328	391.8479347939409	0.0	169.63569844324272	464.48560654584884	0.0	128.79316462152036	428.95626380498913	0.0	276.9606099281779	385.80497278888646	0.0	290.607834236919	473.9992533842873	0.0	223.55452524382096	447.59980834020917	0.0
491	8.183333333333334	226.34423941171838	553.7884793780654	0.0	203.85060039199703	557.7026775978592	0.0	205.40293939735184	673.9996055383026	0.0	218.99350680706556	773.0406944189524	0.0	183.213911373146	808.0649581973751	0.0	179.9377896345625	799.6866302031889	0.0	230.58466582488708	789.0817125016071	0.0	249.82893880358532	561.8337918499072	0.0	247.271230248779	681.8986334862699	0.0	255.05122894978203	792.7034130011658	0.0	219.6066760503238	829.5367918994025	0.0	239.5134683494049	833.2355608331459	0.0	266.1674478743104	807.541590015604	0.0	227.7621045558463	358.66096590482164	0.0	200.2968048107267	272.32110232302836	0.0	176.4316639030093	322.93627987488816	0.0	198.18287827405265	392.0629205137533	0.0	171.99887166860086	466.1423299038495	0.0	124.05182573927566	433.0853709704925	0.0	277.14710699062465	386.2523580781574	0.0	289.5748720523203	475.4466187296961	0.0	227.43029036036353	452.4561374274043	0.0
492	8.2	226.30653490348908	553.817602847415	0.0	203.88117863571813	557.6562351429153	0.0	205.31870673142714	673.5917920454694	0.0	219.114140666525	772.9552114962937	0.0	183.1172285801344	808.0727280371598	0.0	179.70416228928198	799.757765413441	0.0	230.60537392999387	788.7764485651422	0.0	249.76728004474427	561.6943375897437	0.0	247.16533233206462	681.8830614212818	0.0	255.31140927481482	792.5663498550823	0.0	219.81796407846107	829.5974510539804	0.0	239.69119352073434	833.2996721339255	0.0	266.2863103196751	807.4111065419975	0.0	227.89518242634594	358.6142508667333	0.0	200.12333350524284	272.36636384135363	0.0	176.7840671935974	323.10652708415665	0.0	198.69961056024297	392.2999214105202	0.0	173.94853427668104	467.42242501146666	0.0	119.4136691880037	438.2435462351804	0.0	277.2653074158198	386.62585795166	0.0	288.8151107854289	476.5503986689024	0.0	231.54998441454157	458.56468554122097	0.0
493	8.216666666666667	226.26624481599018	553.9144934608169	0.0	203.93632592199543	557.79357030723	0.0	205.29916535474842	673.3008930861088	0.0	219.24639765512438	772.8420842946757	0.0	183.09536636730016	808.0706422336747	0.0	179.51769478692674	799.7969506883691	0.0	230.61355051071922	788.47103514329	0.0	249.70417141058687	561.7306569791521	0.0	247.1043812270347	681.9701884701196	0.0	255.57251794937562	792.4244315296852	0.0	219.9951607756179	829.6604122291757	0.0	239.84361479425897	833.3663696007116	0.0	266.36514345570964	807.2939679624511	0.0	228.0811958264938	358.62147662103473	0.0	200.14341691401694	272.5109169044935	0.0	177.12475943280623	323.3139803405888	0.0	199.1646068142788	392.5506783095337	0.0	175.4303670026989	468.3425765932568	0.0	115.07948095682296	444.0617304142035	0.0	277.3105726828855	386.9173414272242	0.0	288.4156328070888	477.29688129868384	0.0	235.84312759687725	465.49265768349596	0.0
494	8.233333333333333	226.23207361350867	554.0689991624753	0.0	204.02023623458058	558.0822408895372	0.0	205.34725476817476	673.1385725365201	0.0	219.37165462930406	772.7168414033262	0.0	183.12600127173215	808.0642414085914	0.0	179.37216344068418	799.8043422863794	0.0	230.6007767140999	788.1919520793496	0.0	249.66013386573124	561.9252640990434	0.0	247.09994484910118	682.1439450962276	0.0	255.82385717405288	792.2989652258019	0.0	220.12034566890256	829.7097685647104	0.0	239.9500317323588	833.4277267466985	0.0	266.4109557264792	807.2071579003027	0.0	228.29451301877762	358.68151793677845	0.0	200.31745447181257	272.74414805112275	0.0	177.41952537501177	323.5577705111445	0.0	199.53833861417428	392.8025084984195	0.0	176.4414019976439	468.9390978563886	0.0	111.20507195283908	450.13882029925554	0.0	277.28326898834644	387.1231688057139	0.0	288.4213422798795	477.71361838021403	0.0	240.21126226514892	472.7483557766566	0.0
